HIERARCHY
ROOT hip
{
  OFFSET 0 0 0
  CHANNELS 6 Xposition Yposition Zposition Zrotation Yrotation Xrotation
  JOINT abdomen
  {
    OFFSET 0 20.6881 -0.73152
    CHANNELS 3 Zrotation Xrotation Yrotation
    JOINT chest
    {
      OFFSET 0 11.7043 -0.48768
      CHANNELS 3 Zrotation Xrotation Yrotation
      JOINT neck
      {
        OFFSET 0 22.1894 -2.19456
        CHANNELS 3 Zrotation Xrotation Yrotation
        JOINT head
        {
          OFFSET -0.24384 7.07133 1.2192
          CHANNELS 3 Zrotation Xrotation Yrotation
          JOINT leftEye
          {
            OFFSET 4.14528 8.04674 8.04672
            CHANNELS 3 Zrotation Xrotation Yrotation
            End Site
            {
              OFFSET 1 0 0
            }
          }
          JOINT rightEye
          {
            OFFSET -3.6576 8.04674 8.04672
            CHANNELS 3 Zrotation Xrotation Yrotation
            End Site
            {
              OFFSET 1 0 0
            }
          }
        }
      }
      JOINT rCollar
      {
        OFFSET -2.68224 19.2634 -4.8768
        CHANNELS 3 Zrotation Xrotation Yrotation
        JOINT rShldr
        {
          OFFSET -8.77824 -1.95073 1.46304
          CHANNELS 3 Zrotation Xrotation Yrotation
          JOINT rForeArm
          {
            OFFSET -28.1742 -1.7115 0.48768
            CHANNELS 3 Zrotation Xrotation Yrotation
            JOINT rHand
            {
              OFFSET -22.5879 0.773209 7.07136
              CHANNELS 3 Zrotation Xrotation Yrotation
              JOINT rThumb1
              {
                OFFSET -1.2192 -0.487915 3.41376
                CHANNELS 3 Zrotation Xrotation Yrotation
                JOINT rThumb2
                {
                  OFFSET -3.37035 -0.52449 3.41376
                  CHANNELS 3 Zrotation Xrotation Yrotation
                  End Site
                  {
                    OFFSET -1.78271 -1.18214 1.43049
                  }
                }
              }
              JOINT rIndex1
              {
                OFFSET -7.75947 0.938293 5.60832
                CHANNELS 3 Zrotation Xrotation Yrotation
                JOINT rIndex2
                {
                  OFFSET -2.54057 -0.884171 1.56538
                  CHANNELS 3 Zrotation Xrotation Yrotation
                  End Site
                  {
                    OFFSET -1.62519 -0.234802 1.16502
                  }
                }
              }
              JOINT rMid1
              {
                OFFSET -8.24714 1.18213 3.41376
                CHANNELS 3 Zrotation Xrotation Yrotation
                JOINT rMid2
                {
                  OFFSET -3.10165 -0.590103 1.0647
                  CHANNELS 3 Zrotation Xrotation Yrotation
                  End Site
                  {
                    OFFSET -2.48547 -0.328903 0.83742
                  }
                }
              }
              JOINT rRing1
              {
                OFFSET -8.82822 0.546677 1.51678
                CHANNELS 3 Zrotation Xrotation Yrotation
                JOINT rRing2
                {
                  OFFSET -2.60934 -0.819778 -0.0198488
                  CHANNELS 3 Zrotation Xrotation Yrotation
                  End Site
                  {
                    OFFSET -2.33842 -0.294052 0.168128
                  }
                }
              }
              JOINT rPinky1
              {
                OFFSET -8.27202 -0.0477905 -0.4584
                CHANNELS 3 Zrotation Xrotation Yrotation
                JOINT rPinky2
                {
                  OFFSET -1.82734 -0.647385 -0.700984
                  CHANNELS 3 Zrotation Xrotation Yrotation
                  End Site
                  {
                    OFFSET -1.69225 -0.51767 -0.607171
                  }
                }
              }
            }
          }
        }
      }
      JOINT lCollar
      {
        OFFSET 2.68224 19.2634 -4.8768
        CHANNELS 3 Zrotation Xrotation Yrotation
        JOINT lShldr
        {
          OFFSET 8.77824 -1.95073 1.46304
          CHANNELS 3 Zrotation Xrotation Yrotation
          JOINT lForeArm
          {
            OFFSET 28.1742 -1.7115 0.48768
            CHANNELS 3 Zrotation Xrotation Yrotation
            JOINT lHand
            {
              OFFSET 22.5879 0.773209 7.07136
              CHANNELS 3 Zrotation Xrotation Yrotation
              JOINT lThumb1
              {
                OFFSET 1.2192 -0.487915 3.41376
                CHANNELS 3 Zrotation Xrotation Yrotation
                JOINT lThumb2
                {
                  OFFSET 3.37035 -0.52449 3.41376
                  CHANNELS 3 Zrotation Xrotation Yrotation
                  End Site
                  {
                    OFFSET 1.78271 -1.18214 1.43049
                  }
                }
              }
              JOINT lIndex1
              {
                OFFSET 7.75947 0.938293 5.60832
                CHANNELS 3 Zrotation Xrotation Yrotation
                JOINT lIndex2
                {
                  OFFSET 2.54057 -0.884171 1.56538
                  CHANNELS 3 Zrotation Xrotation Yrotation
                  End Site
                  {
                    OFFSET 1.62519 -0.234802 1.16502
                  }
                }
              }
              JOINT lMid1
              {
                OFFSET 8.24714 1.18213 3.41376
                CHANNELS 3 Zrotation Xrotation Yrotation
                JOINT lMid2
                {
                  OFFSET 3.10165 -0.590103 1.0647
                  CHANNELS 3 Zrotation Xrotation Yrotation
                  End Site
                  {
                    OFFSET 2.48547 -0.328903 0.83742
                  }
                }
              }
              JOINT lRing1
              {
                OFFSET 8.82822 0.546677 1.51678
                CHANNELS 3 Zrotation Xrotation Yrotation
                JOINT lRing2
                {
                  OFFSET 2.60934 -0.819778 -0.0198488
                  CHANNELS 3 Zrotation Xrotation Yrotation
                  End Site
                  {
                    OFFSET 2.33842 -0.294052 0.168128
                  }
                }
              }
              JOINT lPinky1
              {
                OFFSET 8.27202 -0.0477905 -0.4584
                CHANNELS 3 Zrotation Xrotation Yrotation
                JOINT lPinky2
                {
                  OFFSET 1.82734 -0.647385 -0.700984
                  CHANNELS 3 Zrotation Xrotation Yrotation
                  End Site
                  {
                    OFFSET 1.69225 -0.51767 -0.607171
                  }
                }
              }
            }
          }
        }
      }
    }
  }
  JOINT rButtock
  {
    OFFSET -8.77824 4.35084 1.2192
    CHANNELS 3 Zrotation Xrotation Yrotation
    JOINT rThigh
    {
      OFFSET 0 -1.70687 -2.19456
      CHANNELS 3 Zrotation Xrotation Yrotation
      JOINT rShin
      {
        OFFSET 0 -36.8199 0.73152
        CHANNELS 3 Zrotation Xrotation Yrotation
        JOINT rFoot
        {
          OFFSET 0.73152 -45.1104 -5.12064
          CHANNELS 3 Zrotation Xrotation Yrotation
          End Site
          {
            OFFSET -1.1221 -3.69964 12.103
          }
        }
      }
    }
  }
  JOINT lButtock
  {
    OFFSET 8.77824 4.35084 1.2192
    CHANNELS 3 Zrotation Xrotation Yrotation
    JOINT lThigh
    {
      OFFSET 0 -1.70687 -2.19456
      CHANNELS 3 Zrotation Xrotation Yrotation
      JOINT lShin
      {
        OFFSET 0 -36.8199 0.73152
        CHANNELS 3 Zrotation Xrotation Yrotation
        JOINT lFoot
        {
          OFFSET -0.73152 -45.1104 -5.12064
          CHANNELS 3 Zrotation Xrotation Yrotation
          End Site
          {
            OFFSET 1.1221 -3.69964 12.103
          }
        }
      }
    }
  }
}
MOTION
Frames:	9
Frame Time:	0.00833333
-43.8926 83.7983 -87.1536 -162.818 86.1645 -160.403 5.26212 3.02849 -1.67956 3.47753 -6.60342 -0.0103286 -8.30647 -8.04447 -4.98019 8.24474 16.9664 -6.76587 -0.0 0.0 0.0 -0.0 0.0 0.0 -5.06659e-14 2.30058e-12 -1.33704e-13 87.3999 57.7451 -16.8866 -28.3817 -33.9483 73.6157 -0.00372229 -1.83551 -0.258037 3.78758e-10 -6.28129e-11 -1.61546e-10 6.55757e-10 -1.07339e-10 -2.78016e-10 3.7876e-10 -6.28097e-11 -1.61555e-10 7.73091 5.47488 0.417314 3.78755e-10 -6.28084e-11 -1.61549e-10 2.90554 0.965183 0.102902 3.78764e-10 -6.28048e-11 -1.61551e-10 10.2786 0.731801 0.0259123 3.78759e-10 -6.28029e-11 -1.61541e-10 2.22167 -0.733487 -0.20892 -5.07188e-14 2.30059e-12 -1.33929e-13 -85.3998 71.0807 11.36 28.4205 -34.8214 -75.0521 1.31438 -30.6958 4.78598 -8.93106e-11 -9.72157e-11 3.5975e-10 -1.65265e-10 -1.66243e-10 6.17273e-10 -8.93242e-11 -9.72172e-11 3.5976e-10 -7.73091 5.47488 -0.417314 -8.93112e-11 -9.72162e-11 3.59738e-10 -2.90554 0.965183 -0.102902 -8.93194e-11 -9.7217e-11 3.59746e-10 -10.2786 0.731801 -0.0259123 -8.93073e-11 -9.72157e-11 3.59735e-10 -2.22167 -0.733487 0.20892 -2.03217e-16 0.0 -3.88251e-19 -3.01695 -1.27181 -5.4255 0.00882191 10.1395 0.202771 -2.68841 -9.22381 -15.987 2.03217e-16 0.0 3.88251e-19 8.49462 -7.11933 -10.7507 0.13683 18.7978 -0.47538 3.4907 -16.3467 7.83859
-44.0063 83.8053 -87.1466 -162.385 86.0922 -159.843 5.34734 3.07269 -1.76537 3.48162 -6.63509 -0.0340408 -8.29905 -8.09008 -5.01089 8.32467 17.0191 -6.84018 -0.0 0.0 0.0 -0.0 0.0 0.0 -3.02158e-14 2.97252e-12 -1.57934e-13 87.2186 57.4815 -16.504 -28.3848 -33.9994 73.6988 -0.00266476 -1.47381 -0.207177 6.05848e-10 -6.41957e-10 -1.02867e-09 1.05143e-09 -1.1106e-09 -1.777e-09 6.0585e-10 -6.41952e-10 -1.02868e-09 7.73091 5.47488 0.417314 6.05844e-10 -6.4195e-10 -1.02867e-09 2.90554 0.965183 0.102902 6.05855e-10 -6.41947e-10 -1.02868e-09 10.2786 0.731801 0.0259123 6.05851e-10 -6.41945e-10 -1.02866e-09 2.22167 -0.733487 -0.20892 -3.02167e-14 2.97253e-12 -1.58133e-13 -84.3878 70.9874 10.3699 28.4224 -34.8767 -75.1413 1.30473 -30.5974 4.76717 3.70525e-10 -5.8422e-10 1.07577e-09 6.10141e-10 -1.02213e-09 1.86484e-09 3.70511e-10 -5.84221e-10 1.07578e-09 -7.73091 5.47488 -0.417314 3.70524e-10 -5.84218e-10 1.07576e-09 -2.90554 0.965183 -0.102902 3.70516e-10 -5.84221e-10 1.07576e-09 -10.2786 0.731801 -0.0259123 3.70528e-10 -5.84221e-10 1.07575e-09 -2.22167 -0.733487 0.20892 -2.03217e-16 0.0 -3.88251e-19 -2.99656 -1.42297 -5.50591 0.00899879 10.1472 0.204474 -2.68272 -9.22669 -15.9556 2.03217e-16 0.0 3.88251e-19 8.51685 -7.31487 -10.797 0.137014 18.83 -0.475424 3.49547 -16.2791 7.87216
-44.1226 83.8154 -87.1428 -162.242 86.0577 -159.553 5.36089 3.09522 -1.77443 3.50743 -6.65492 -0.0363116 -8.35912 -8.15896 -5.06443 8.49508 17.0988 -6.94388 -0.0 0.0 0.0 -0.0 0.0 0.0 -1.47677e-14 2.02141e-12 -1.05265e-13 87.0482 57.254 -16.2215 -28.3879 -34.0552 73.7904 -0.00205892 -1.24168 -0.174541 3.58544e-10 -1.76519e-10 -2.74103e-10 6.22793e-10 -3.04889e-10 -4.72392e-10 3.58546e-10 -1.76513e-10 -2.7411e-10 7.73091 5.47488 0.417314 3.5854e-10 -1.76512e-10 -2.74104e-10 2.90554 0.965183 0.102902 3.58552e-10 -1.76509e-10 -2.74108e-10 10.2786 0.731801 0.0259123 3.58545e-10 -1.76508e-10 -2.74098e-10 2.22167 -0.733487 -0.20892 -1.47811e-14 2.02141e-12 -1.05448e-13 -83.5895 70.9051 9.55956 28.4256 -34.9788 -75.3071 1.2917 -30.4629 4.74159 -5.38971e-11 1.61495e-11 1.99283e-10 -1.01668e-10 2.97491e-11 3.41451e-10 -5.39087e-11 1.61474e-11 1.99292e-10 -7.73091 5.47488 -0.417314 -5.38988e-11 1.61524e-11 1.99276e-10 -2.90554 0.965183 -0.102902 -5.39069e-11 1.61483e-11 1.99281e-10 -10.2786 0.731801 -0.0259123 -5.38935e-11 1.6149e-11 1.99273e-10 -2.22167 -0.733487 0.20892 -2.03217e-16 0.0 -3.88251e-19 -3.01581 -1.60596 -5.54548 0.00912639 10.1445 0.205499 -2.67568 -9.20406 -15.9345 2.03217e-16 0.0 3.88251e-19 8.49854 -7.51007 -10.8281 0.137085 18.8304 -0.474785 3.50507 -16.2238 7.91575
-44.2376 83.8281 -87.1457 -162.542 86.0557 -159.703 5.33122 3.10161 -1.73951 3.5478 -6.66729 -0.0263475 -8.45882 -8.24627 -5.1302 8.72398 17.1902 -7.06307 -0.0 0.0 0.0 -0.0 0.0 0.0 -1.85823e-15 3.96312e-14 -3.21783e-15 86.8793 57.047 -16.0018 -28.391 -34.1133 73.8863 -0.00154318 -1.06945 -0.150325 -1.68522e-10 8.76737e-10 1.40364e-09 -2.9182e-10 1.51875e-09 2.42819e-09 -1.68519e-10 8.76744e-10 1.40363e-09 7.73091 5.47488 0.417314 -1.68525e-10 8.76744e-10 1.40364e-09 2.90554 0.965183 0.102902 -1.68512e-10 8.76746e-10 1.40363e-09 10.2786 0.731801 0.0259123 -1.68522e-10 8.76747e-10 1.40364e-09 2.22167 -0.733487 -0.20892 -1.9219e-15 3.96312e-14 -3.38865e-15 -82.9851 70.8027 8.9114 28.4288 -35.1175 -75.5357 1.27464 -30.2844 4.7078 -9.8371e-10 1.25898e-09 -1.61719e-09 -1.66279e-09 2.20842e-09 -2.81702e-09 -9.83718e-10 1.25898e-09 -1.61718e-09 -7.73091 5.47488 -0.417314 -9.83712e-10 1.25898e-09 -1.61718e-09 -2.90554 0.965183 -0.102902 -9.8372e-10 1.25898e-09 -1.61718e-09 -10.2786 0.731801 -0.0259123 -9.83706e-10 1.25898e-09 -1.61719e-09 -2.22167 -0.733487 0.20892 -2.03217e-16 0.0 -3.88251e-19 -3.0599 -1.816 -5.56234 0.00922766 10.1351 0.206127 -2.66909 -9.17224 -15.9152 2.03217e-16 0.0 3.88251e-19 8.45487 -7.71104 -10.8551 0.13707 18.808 -0.473721 3.51989 -16.1731 7.97251
-44.3464 83.8438 -87.1554 -163.25 86.0763 -160.282 5.28945 3.10836 -1.67628 3.58655 -6.68414 -0.00844752 -8.58162 -8.31757 -5.19973 8.97455 17.2511 -7.18394 -0.0 0.0 0.0 -0.0 0.0 0.0 7.82366e-15 -1.99988e-12 1.00923e-13 86.7024 56.857 -15.8005 -28.3945 -34.1801 73.9959 -0.00113025 -0.945313 -0.132869 -6.4605e-10 1.83245e-09 2.93061e-09 -1.12091e-09 3.17364e-09 5.06804e-09 -6.46047e-10 1.83246e-09 2.9306e-09 7.73091 5.47488 0.417314 -6.46052e-10 1.83246e-09 2.93061e-09 2.90554 0.965183 0.102902 -6.46038e-10 1.83246e-09 2.9306e-09 10.2786 0.731801 0.0259123 -6.46053e-10 1.83246e-09 2.9306e-09 2.22167 -0.733487 -0.20892 7.70577e-15 -1.99989e-12 1.00762e-13 -82.4576 70.6994 8.31724 28.431 -35.2658 -75.7832 1.25488 -30.0756 4.66842 -1.83993e-09 2.3979e-09 -3.29458e-09 -3.09984e-09 4.20504e-09 -5.73356e-09 -1.83993e-09 2.39789e-09 -3.29457e-09 -7.73091 5.47488 -0.417314 -1.83993e-09 2.3979e-09 -3.29456e-09 -2.90554 0.965183 -0.102902 -1.83994e-09 2.3979e-09 -3.29457e-09 -10.2786 0.731801 -0.0259123 -1.83993e-09 2.3979e-09 -3.29457e-09 -2.22167 -0.733487 0.20892 -2.03217e-16 0.0 -3.88251e-19 -3.11362 -2.02848 -5.5616 0.00930925 10.1221 0.206494 -2.66258 -9.13779 -15.8967 2.03217e-16 0.0 3.88251e-19 8.40245 -7.90101 -10.8693 0.137002 18.7703 -0.472347 3.53618 -16.1223 8.03394
-44.4491 83.8607 -87.1686 -164.156 86.1116 -161.084 5.26663 3.13197 -1.60041 3.60749 -6.71738 0.0130907 -8.71077 -8.33848 -5.26451 9.20955 17.2398 -7.29256 -0.0 0.0 0.0 -0.0 0.0 0.0 1.3589e-14 -3.12422e-12 1.59873e-13 86.5089 56.68 -15.5747 -28.3988 -34.2617 74.1287 -0.00090184 -0.857472 -0.120519 -7.4474e-10 2.00527e-09 3.23286e-09 -1.29297e-09 3.47311e-09 5.59042e-09 -7.44736e-10 2.00527e-09 3.23286e-09 7.73091 5.47488 0.417314 -7.44741e-10 2.00527e-09 3.23286e-09 2.90554 0.965183 0.102902 -7.44728e-10 2.00527e-09 3.23286e-09 10.2786 0.731801 0.0259123 -7.44744e-10 2.00527e-09 3.23286e-09 2.22167 -0.733487 -0.20892 1.34467e-14 -3.12423e-12 1.59723e-13 -81.89 70.613 7.66861 28.4321 -35.3975 -76.0044 1.23368 -29.8501 4.62604 -2.04357e-09 2.68652e-09 -3.75382e-09 -3.43943e-09 4.71075e-09 -6.53117e-09 -2.04357e-09 2.68652e-09 -3.75381e-09 -7.73091 5.47488 -0.417314 -2.04357e-09 2.68652e-09 -3.7538e-09 -2.90554 0.965183 -0.102902 -2.04358e-09 2.68652e-09 -3.75381e-09 -10.2786 0.731801 -0.0259123 -2.04357e-09 2.68652e-09 -3.75381e-09 -2.22167 -0.733487 0.20892 -2.03217e-16 0.0 -3.88251e-19 -3.16186 -2.21875 -5.54831 0.00937775 10.1085 0.206738 -2.65573 -9.10727 -15.8779 2.03217e-16 0.0 3.88251e-19 8.358 -8.06324 -10.8618 0.136914 18.7249 -0.470778 3.55023 -16.0663 8.09159
-44.5464 83.8773 -87.1802 -164.958 86.1579 -161.803 5.2685 3.1919 -1.48645 3.59767 -6.77542 0.0453077 -8.8745 -8.27999 -5.33724 9.46637 17.1008 -7.40902 -0.0 0.0 0.0 -0.0 0.0 0.0 1.16065e-14 -2.9199e-12 1.54052e-13 86.3336 56.5066 -15.3682 -28.4042 -34.3697 74.3041 -0.000867889 -0.824195 -0.115842 -1.59952e-10 7.76629e-10 1.35784e-09 -2.80037e-10 1.34645e-09 2.34846e-09 -1.5995e-10 7.76634e-10 1.35784e-09 7.73091 5.47488 0.417314 -1.59953e-10 7.76634e-10 1.35784e-09 2.90554 0.965183 0.102902 -1.59943e-10 7.76634e-10 1.35783e-09 10.2786 0.731801 0.0259123 -1.59958e-10 7.76634e-10 1.35783e-09 2.22167 -0.733487 -0.20892 1.14906e-14 -2.91991e-12 1.53918e-13 -81.266 70.5782 6.95447 28.4329 -35.51 -76.1919 1.20868 -29.5821 4.57585 -1.1145e-09 1.52263e-09 -2.13088e-09 -1.87319e-09 2.66913e-09 -3.70638e-09 -1.1145e-09 1.52262e-09 -2.13087e-09 -7.73091 5.47488 -0.417314 -1.1145e-09 1.52263e-09 -2.13086e-09 -2.90554 0.965183 -0.102902 -1.11451e-09 1.52263e-09 -2.13086e-09 -10.2786 0.731801 -0.0259123 -1.11449e-09 1.52263e-09 -2.13086e-09 -2.22167 -0.733487 0.20892 -2.03217e-16 0.0 -3.88251e-19 -3.20546 -2.37189 -5.51311 0.00943009 10.0929 0.206797 -2.64962 -9.08735 -15.8569 2.03217e-16 0.0 3.88251e-19 8.32253 -8.17793 -10.819 0.13675 18.6631 -0.468795 3.56112 -16.0012 8.14467
-44.641 83.8912 -87.1858 -165.404 86.2145 -162.174 5.27903 3.27433 -1.33591 3.56867 -6.85015 0.0877763 -9.07049 -8.1671 -5.41744 9.74812 16.8713 -7.53261 -0.0 0.0 0.0 -0.0 0.0 0.0 3.4596e-15 -1.95716e-12 1.11003e-13 86.1679 56.342 -15.1849 -28.4099 -34.4969 74.5122 -0.000905938 -0.844636 -0.118715 8.60411e-10 -1.34267e-09 -1.89964e-09 1.48791e-09 -2.32202e-09 -3.28368e-09 8.60412e-10 -1.34267e-09 -1.89964e-09 7.73091 5.47488 0.417314 8.6041e-10 -1.34267e-09 -1.89964e-09 2.90554 0.965183 0.102902 8.60416e-10 -1.34267e-09 -1.89964e-09 10.2786 0.731801 0.0259123 8.60404e-10 -1.34267e-09 -1.89964e-09 2.22167 -0.733487 -0.20892 3.3987e-15 -1.95716e-12 1.10885e-13 -80.638 70.5752 6.22177 28.4334 -35.6161 -76.368 1.18045 -29.2741 4.51855 5.29912e-10 -5.61324e-10 8.0666e-10 8.96801e-10 -9.85948e-10 1.40542e-09 5.29911e-10 -5.61326e-10 8.06672e-10 -7.73091 5.47488 -0.417314 5.29914e-10 -5.61322e-10 8.06673e-10 -2.90554 0.965183 -0.102902 5.29904e-10 -5.61321e-10 8.06671e-10 -10.2786 0.731801 -0.0259123 5.29916e-10 -5.61319e-10 8.06668e-10 -2.22167 -0.733487 0.20892 -2.03217e-16 0.0 -3.88251e-19 -3.25062 -2.50383 -5.45682 0.00946413 10.0743 0.20663 -2.64406 -9.07289 -15.8347 2.03217e-16 0.0 3.88251e-19 8.28852 -8.25915 -10.7495 0.136519 18.5843 -0.466423 3.57079 -15.9306 8.19723
-44.736 83.9025 -87.184 -165.404 86.2783 -162.09 5.29696 3.34581 -1.20489 3.54108 -6.92875 0.12499 -9.23633 -8.04636 -5.47681 9.96693 16.6482 -7.61836 -0.0 0.0 0.0 -0.0 0.0 0.0 -3.41915e-15 -7.38644e-13 5.41222e-14 85.9405 56.2028 -14.9229 -28.4145 -34.6216 74.7185 -0.000959264 -0.878328 -0.123451 1.81684e-09 -3.34399e-09 -4.99241e-09 3.14541e-09 -5.78647e-09 -8.63112e-09 1.81684e-09 -3.34399e-09 -4.99241e-09 7.73091 5.47488 0.417314 1.81684e-09 -3.34399e-09 -4.99242e-09 2.90554 0.965183 0.102902 1.81684e-09 -3.34399e-09 -4.99241e-09 10.2786 0.731801 0.0259123 1.81683e-09 -3.34399e-09 -4.99241e-09 2.22167 -0.733487 -0.20892 -3.42675e-15 -7.38638e-13 5.40174e-14 -79.9987 70.5385 5.45588 28.4334 -35.7136 -76.5303 1.15427 -28.9822 4.46466 2.12239e-09 -2.60967e-09 3.69038e-09 3.57828e-09 -4.57797e-09 6.42298e-09 2.12239e-09 -2.60967e-09 3.69039e-09 -7.73091 5.47488 -0.417314 2.1224e-09 -2.60967e-09 3.69039e-09 -2.90554 0.965183 -0.102902 2.12239e-09 -2.60967e-09 3.69039e-09 -10.2786 0.731801 -0.0259123 2.1224e-09 -2.60966e-09 3.69038e-09 -2.22167 -0.733487 0.20892 -2.03217e-16 0.0 -3.88251e-19 -3.29037 -2.63628 -5.39982 0.00948792 10.0569 0.206406 -2.63678 -9.05275 -15.8152 2.03217e-16 0.0 3.88251e-19 8.25981 -8.34097 -10.6767 0.136343 18.509 -0.464138 3.57983 -15.8608 8.24794
